<svg version="1.1" viewBox="0.0 0.0 423.63254593175856 343.43832020997377" fill="none" stroke="none" stroke-linecap="square" stroke-miterlimit="10" xmlns:xlink="http://www.w3.org/1999/xlink" xmlns="http://www.w3.org/2000/svg"><clipPath id="p.0"><path d="m0 0l423.63254 0l0 343.43832l-423.63254 0l0 -343.43832z" clip-rule="nonzero"/></clipPath><g clip-path="url(#p.0)"><path fill="#000000" fill-opacity="0.0" d="m0 0l423.63254 0l0 343.43832l-423.63254 0z" fill-rule="evenodd"/><path fill="#000000" fill-opacity="0.0" d="m328.9475 201.80577l0 0c0 -17.56874 14.242279 -31.81102 31.811035 -31.81102l0 0c8.436798 0 16.528046 3.3515015 22.493774 9.31723c5.9657288 5.9657288 9.31723 14.056992 9.31723 22.49379l0 0c0 17.56874 -14.242279 31.81102 -31.811005 31.81102l0 0c-17.568756 0 -31.811035 -14.242279 -31.811035 -31.81102z" fill-rule="evenodd"/><path stroke="#3c78d8" stroke-width="4.0" stroke-linejoin="round" stroke-linecap="butt" d="m328.9475 201.80577l0 0c0 -17.56874 14.242279 -31.81102 31.811035 -31.81102l0 0c8.436798 0 16.528046 3.3515015 22.493774 9.31723c5.9657288 5.9657288 9.31723 14.056992 9.31723 22.49379l0 0c0 17.56874 -14.242279 31.81102 -31.811005 31.81102l0 0c-17.568756 0 -31.811035 -14.242279 -31.811035 -31.81102z" fill-rule="evenodd"/><path fill="#000000" d="m359.63312 211.40578l0 -6.765625l-5.25 -10.71875l2.375 0l2.265625 4.921875q0.421875 0.96875 0.828125 1.90625q0.40625 0.921875 0.859375 1.90625l0.09375 0q0.453125 -0.984375 0.90625 -1.90625q0.453125 -0.9375 0.859375 -1.90625l2.234375 -4.921875l2.328125 0l-5.25 10.71875l0 6.765625l-2.25 0z" fill-rule="nonzero"/><path fill="#000000" fill-opacity="0.0" d="m197.01575 46.32021l0 0c0 -17.568743 14.242279 -31.811024 31.81102 -31.811024l0 0c8.436813 0 16.528076 3.3515081 22.49379 9.317233c5.9657288 5.965723 9.31723 14.056984 9.31723 22.49379l0 0c0 17.568745 -14.242279 31.811024 -31.81102 31.811024l0 0c-17.56874 0 -31.81102 -14.242279 -31.81102 -31.811024z" fill-rule="evenodd"/><path stroke="#3c78d8" stroke-width="4.0" stroke-linejoin="round" stroke-linecap="butt" d="m197.01575 46.32021l0 0c0 -17.568743 14.242279 -31.811024 31.81102 -31.811024l0 0c8.436813 0 16.528076 3.3515081 22.49379 9.317233c5.9657288 5.965723 9.31723 14.056984 9.31723 22.49379l0 0c0 17.568745 -14.242279 31.811024 -31.81102 31.811024l0 0c-17.56874 0 -31.81102 -14.242279 -31.81102 -31.811024z" fill-rule="evenodd"/><path fill="#000000" d="m222.39572 55.920208l5.078125 -9.03125l-4.734375 -8.453125l2.453125 0l2.375 4.46875q0.34375 0.625 0.640625 1.203125q0.3125 0.5625 0.71875 1.34375l0.09375 0q0.375 -0.78125 0.65625 -1.34375q0.28125 -0.578125 0.609375 -1.203125l2.3125 -4.46875l2.34375 0l-4.765625 8.546875l5.09375 8.9375l-2.453125 0l-2.5625 -4.71875q-0.34375 -0.640625 -0.703125 -1.3125q-0.359375 -0.6875 -0.796875 -1.484375l-0.109375 0q-0.359375 0.796875 -0.71875 1.484375q-0.34375 0.671875 -0.65625 1.3125l-2.53125 4.71875l-2.34375 0z" fill-rule="nonzero"/><path fill="#000000" fill-opacity="0.0" d="m74.42257 290.25198l0 0c0 -17.568756 14.242287 -31.811035 31.811028 -31.811035l0 0c8.436806 0 16.528069 3.3515015 22.49379 9.31723c5.9657288 5.9657288 9.31723 14.056976 9.31723 22.493805l0 0c0 17.568726 -14.242279 31.811005 -31.81102 31.811005l0 0c-17.56874 0 -31.811028 -14.242279 -31.811028 -31.811005z" fill-rule="evenodd"/><path stroke="#3c78d8" stroke-width="4.0" stroke-linejoin="round" stroke-linecap="butt" d="m74.42257 290.25198l0 0c0 -17.568756 14.242287 -31.811035 31.811028 -31.811035l0 0c8.436806 0 16.528069 3.3515015 22.49379 9.31723c5.9657288 5.9657288 9.31723 14.056976 9.31723 22.493805l0 0c0 17.568726 -14.242279 31.811005 -31.81102 31.811005l0 0c-17.56874 0 -31.811028 -14.242279 -31.811028 -31.811005z" fill-rule="evenodd"/><path fill="#000000" d="m100.25289 299.85196l0 -1.328125l9.1875 -14.296875l-8.359375 0l0 -1.859375l11.140625 0l0 1.296875l-9.234375 14.296875l9.3125 0l0 1.890625l-12.046875 0z" fill-rule="nonzero"/><path fill="#000000" fill-opacity="0.0" d="m77.19423 177.1916l58.078735 0l0 49.228348l-58.078735 0z" fill-rule="evenodd"/><path stroke="#3c78d8" stroke-width="4.0" stroke-linejoin="round" stroke-linecap="butt" d="m77.19423 177.1916l58.078735 0l0 49.228348l-58.078735 0z" fill-rule="evenodd"/><path fill="#000000" d="m87.11557 211.40578l6.703125 -9.0625l-2.875 -8.421875l2.25 0l1.484375 4.640625q0.1875 0.609375 0.34375 1.1875q0.171875 0.5625 0.375 1.265625l0.078125 0q0.453125 -0.640625 0.90625 -1.28125q0.453125 -0.640625 0.859375 -1.25l3.203125 -4.5625l2.171875 0l-6.3125 8.578125l3.125 8.90625l-2.25 0l-1.59375 -4.90625q-0.21875 -0.671875 -0.421875 -1.34375q-0.1875 -0.6875 -0.40625 -1.375l-0.078125 0q-0.53125 0.6875 -1.015625 1.421875q-0.46875 0.734375 -0.921875 1.40625l-3.421875 4.796875l-2.203125 0z" fill-rule="nonzero"/><path fill="#000000" d="m103.34621 216.1714l0 -17.859375q0 -1.328125 0.3125 -2.46875q0.328125 -1.15625 0.984375 -1.96875q0.671875 -0.828125 1.671875 -1.296875q1.0 -0.46875 2.359375 -0.46875q0.953125 0 1.828125 0.28125q0.890625 0.28125 1.5625 0.859375q0.6875 0.5625 1.078125 1.4375q0.40625 0.859375 0.40625 2.03125q0 1.4375 -0.671875 2.546875q-0.65625 1.109375 -1.890625 1.875l0 0.109375q1.921875 0.265625 3.03125 1.609375q1.109375 1.34375 1.109375 3.40625q0 1.296875 -0.4375 2.3125q-0.421875 1.015625 -1.125 1.71875q-0.703125 0.703125 -1.609375 1.0625q-0.90625 0.359375 -1.890625 0.359375q-1.234375 0 -2.4375 -0.421875q-1.1875 -0.421875 -2.203125 -1.546875q0.046875 1.65625 0.078125 3.21875q0.03125 1.5625 0.046875 3.203125l-2.203125 0zm6.203125 -6.28125q0.703125 0 1.3125 -0.25q0.609375 -0.265625 1.078125 -0.734375q0.46875 -0.484375 0.734375 -1.1875q0.265625 -0.703125 0.265625 -1.59375q0 -1.546875 -0.90625 -2.578125q-0.90625 -1.046875 -2.71875 -1.046875q-0.6875 0 -1.328125 0.15625l-0.359375 -1.671875q1.046875 -0.21875 1.765625 -0.640625q0.71875 -0.421875 1.171875 -0.984375q0.453125 -0.5625 0.65625 -1.203125q0.203125 -0.640625 0.203125 -1.28125q0 -0.75 -0.21875 -1.296875q-0.21875 -0.5625 -0.59375 -0.9375q-0.359375 -0.375 -0.859375 -0.5625q-0.484375 -0.1875 -1.03125 -0.1875q-1.515625 0 -2.359375 1.203125q-0.828125 1.203125 -0.859375 3.515625q-0.046875 2.34375 -0.0625 4.625q-0.015625 2.28125 -0.015625 4.625q0.9375 1.203125 2.015625 1.625q1.09375 0.40625 2.109375 0.40625z" fill-rule="nonzero"/><path fill="#000000" d="m121.17256 221.62453q-0.859375 0 -1.609375 -0.296875q-0.75 -0.3125 -1.296875 -0.890625q-0.53125 -0.578125 -0.84375 -1.421875q-0.3125 -0.84375 -0.3125 -1.90625q0 -1.09375 0.34375 -1.9375q0.34375 -0.84375 0.90625 -1.421875q0.5625 -0.59375 1.3125 -0.890625q0.765625 -0.296875 1.59375 -0.296875q0.859375 0 1.453125 0.296875q0.609375 0.296875 1.078125 0.71875l-0.75 0.953125q-0.375 -0.34375 -0.796875 -0.546875q-0.40625 -0.21875 -0.921875 -0.21875q-0.59375 0 -1.09375 0.25q-0.484375 0.234375 -0.84375 0.6875q-0.359375 0.4375 -0.5625 1.046875q-0.203125 0.609375 -0.203125 1.359375q0 0.75 0.1875 1.359375q0.203125 0.59375 0.546875 1.03125q0.34375 0.4375 0.84375 0.671875q0.5 0.234375 1.078125 0.234375q0.609375 0 1.109375 -0.25q0.515625 -0.265625 0.921875 -0.609375l0.640625 0.96875q-0.578125 0.515625 -1.296875 0.8125q-0.703125 0.296875 -1.484375 0.296875z" fill-rule="nonzero"/><path fill="#000000" fill-opacity="0.0" d="m206.33298 68.814l-100.09448 108.37795" fill-rule="evenodd"/><path stroke="#6aa84f" stroke-width="3.0" stroke-linejoin="round" stroke-linecap="butt" d="m206.33298 68.814l-87.88192 95.15473" fill-rule="evenodd"/><path fill="#6aa84f" stroke="#6aa84f" stroke-width="3.0" stroke-linecap="butt" d="m114.810844 160.60675l-5.596756 13.363358l12.877167 -6.6394043z" fill-rule="evenodd"/><path fill="#000000" fill-opacity="0.0" d="m251.32056 68.814l86.92914 110.48818" fill-rule="evenodd"/><path stroke="#6aa84f" stroke-width="3.0" stroke-linejoin="round" stroke-linecap="butt" d="m251.32056 68.814l75.7991 96.34173" fill-rule="evenodd"/><path fill="#6aa84f" stroke="#6aa84f" stroke-width="3.0" stroke-linecap="butt" d="m323.22528 168.21971l12.312561 7.635681l-4.523834 -13.763626z" fill-rule="evenodd"/><path fill="#000000" fill-opacity="0.0" d="m179.4357 201.80577l0 0c0 -13.594025 11.020142 -24.614166 24.614166 -24.614166l0 0c6.5280914 0 12.788803 2.5932617 17.404846 7.20932c4.6160583 4.6160583 7.2093353 10.87677 7.2093353 17.404846l0 0c0 13.59404 -11.020142 24.614182 -24.614182 24.614182l0 0c-13.594025 0 -24.614166 -11.020142 -24.614166 -24.614182z" fill-rule="evenodd"/><path fill="#000000" fill-opacity="0.0" d="m204.04987 177.1916l0 49.228348m-24.614166 -24.614182l49.228348 0" fill-rule="evenodd"/><path fill="#000000" fill-opacity="0.0" d="m179.4357 201.80577l0 0c0 -13.594025 11.020142 -24.614166 24.614166 -24.614166l0 0c6.5280914 0 12.788803 2.5932617 17.404846 7.20932c4.6160583 4.6160583 7.2093353 10.87677 7.2093353 17.404846l0 0c0 13.59404 -11.020142 24.614182 -24.614182 24.614182l0 0c-13.594025 0 -24.614166 -11.020142 -24.614166 -24.614182z" fill-rule="evenodd"/><path stroke="#3c78d8" stroke-width="3.0" stroke-linejoin="round" stroke-linecap="butt" d="m204.04987 177.1916l0 49.228348m-24.614166 -24.614182l49.228348 0" fill-rule="evenodd"/><path stroke="#3c78d8" stroke-width="3.0" stroke-linejoin="round" stroke-linecap="butt" d="m179.4357 201.80577l0 0c0 -13.594025 11.020142 -24.614166 24.614166 -24.614166l0 0c6.5280914 0 12.788803 2.5932617 17.404846 7.20932c4.6160583 4.6160583 7.2093353 10.87677 7.2093353 17.404846l0 0c0 13.59404 -11.020142 24.614182 -24.614182 24.614182l0 0c-13.594025 0 -24.614166 -11.020142 -24.614166 -24.614182z" fill-rule="evenodd"/><path fill="#000000" fill-opacity="0.0" d="m135.27296 201.80577l44.157486 0" fill-rule="evenodd"/><path stroke="#6aa84f" stroke-width="3.0" stroke-linejoin="round" stroke-linecap="butt" d="m135.27296 201.80577l26.157486 0" fill-rule="evenodd"/><path fill="#6aa84f" stroke="#6aa84f" stroke-width="3.0" stroke-linecap="butt" d="m161.43045 206.76097l13.614288 -4.9552l-13.614288 -4.9552z" fill-rule="evenodd"/><path fill="#000000" fill-opacity="0.0" d="m138.04462 290.25198l66.01575 0l0 -63.84253" fill-rule="evenodd"/><path stroke="#6aa84f" stroke-width="3.0" stroke-linejoin="round" stroke-linecap="butt" d="m138.04462 290.25198l66.01575 0l0 -45.84253" fill-rule="evenodd"/><path fill="#6aa84f" stroke="#6aa84f" stroke-width="3.0" stroke-linecap="butt" d="m209.01556 244.40945l-4.9552 -13.614304l-4.9552 13.614304z" fill-rule="evenodd"/><path fill="#000000" fill-opacity="0.0" d="m228.66405 201.80577l100.28346 0" fill-rule="evenodd"/><path stroke="#6aa84f" stroke-width="3.0" stroke-linejoin="round" stroke-linecap="butt" d="m228.66405 201.80577l82.28346 0" fill-rule="evenodd"/><path fill="#6aa84f" stroke="#6aa84f" stroke-width="3.0" stroke-linecap="butt" d="m310.9475 206.76097l13.614288 -4.9552l-13.614288 -4.9552z" fill-rule="evenodd"/><path fill="#000000" fill-opacity="0.0" d="m145.72441 142.08923l38.362198 0l0 51.716537l-38.362198 0z" fill-rule="evenodd"/><path fill="#000000" d="m158.55397 180.42361l0 -2.21875l12.703125 0l0 2.21875l-12.703125 0z" fill-rule="nonzero"/><path fill="#000000" fill-opacity="0.0" d="m197.01575 46.32021c-85.937195 0 -156.55156 60.98425 -171.87439 121.968506c-15.322834 60.984253 24.645863 121.96852 49.291718 121.96852" fill-rule="evenodd"/><path stroke="#6aa84f" stroke-width="3.0" stroke-linejoin="round" stroke-linecap="butt" d="m197.01575 46.32021c-85.9372 0 -156.55156 60.98425 -171.87439 121.968506c-7.661417 30.492126 -1.4999504 60.984253 9.6576 83.85335c5.5787773 11.43454 12.406574 20.963348 19.380047 27.633484c0.8716812 0.83377075 1.7456398 1.6228638 2.6197243 2.365448c0.2185173 0.18566895 0.43704987 0.3683777 0.6555481 0.54818726l0.474514 0.38412476" fill-rule="evenodd"/><path fill="#6aa84f" stroke="#6aa84f" stroke-width="3.0" stroke-linecap="butt" d="m55.951138 287.61676l14.460659 0.8901062l-10.50536 -9.97699z" fill-rule="evenodd"/><path fill="#000000" fill-opacity="0.0" d="m247.32283 189.90027l38.362198 0l0 51.716522l-38.362198 0z" fill-rule="evenodd"/><path fill="#000000" d="m264.0666 224.50026l0 -12.953125l1.8125 0l0.1875 2.34375l0.078125 0q0.671875 -1.21875 1.609375 -1.9375q0.953125 -0.734375 2.0625 -0.734375q0.78125 0 1.390625 0.265625l-0.421875 1.921875q-0.328125 -0.109375 -0.59375 -0.15625q-0.265625 -0.046875 -0.65625 -0.046875q-0.828125 0 -1.734375 0.671875q-0.890625 0.65625 -1.546875 2.3125l0 8.3125l-2.1875 0z" fill-rule="nonzero"/><path fill="#000000" fill-opacity="0.0" d="m295.57217 84.81365l86.92914 0l0 51.71653l-86.92914 0z" fill-rule="evenodd"/><path fill="#000000" d="m311.18768 124.179276l0 -17.859375q0 -1.328125 0.3125 -2.46875q0.328125 -1.15625 0.984375 -1.96875q0.671875 -0.828125 1.671875 -1.296875q1.0 -0.46875 2.359375 -0.46875q0.953125 0 1.828125 0.28125q0.890625 0.28125 1.5625 0.859375q0.6875 0.5625 1.078125 1.4375q0.40625 0.859375 0.40625 2.03125q0 1.4375 -0.671875 2.546875q-0.65625 1.109375 -1.890625 1.875l0 0.109375q1.921875 0.265625 3.03125 1.609375q1.109375 1.34375 1.109375 3.40625q0 1.296875 -0.4375 2.3125q-0.421875 1.015625 -1.125 1.71875q-0.703125 0.703125 -1.609375 1.0625q-0.90625 0.359375 -1.890625 0.359375q-1.234375 0 -2.4375 -0.421875q-1.1875 -0.421875 -2.203125 -1.546875q0.046875 1.65625 0.078125 3.21875q0.03125 1.5625 0.046875 3.203125l-2.203125 0zm6.203125 -6.28125q0.703125 0 1.3125 -0.25q0.609375 -0.265625 1.078125 -0.734375q0.46875 -0.484375 0.734375 -1.1875q0.265625 -0.703125 0.265625 -1.59375q0 -1.546875 -0.90625 -2.578125q-0.90625 -1.046875 -2.71875 -1.046875q-0.6875 0 -1.328125 0.15625l-0.359375 -1.671875q1.046875 -0.21875 1.765625 -0.640625q0.71875 -0.421875 1.171875 -0.984375q0.453125 -0.5625 0.65625 -1.203125q0.203125 -0.640625 0.203125 -1.28125q0 -0.75 -0.21875 -1.296875q-0.21875 -0.5625 -0.59375 -0.9375q-0.359375 -0.375 -0.859375 -0.5625q-0.484375 -0.1875 -1.03125 -0.1875q-1.515625 0 -2.359375 1.203125q-0.828125 1.203125 -0.859375 3.515625q-0.046875 2.34375 -0.0625 4.625q-0.015625 2.28125 -0.015625 4.625q0.9375 1.203125 2.015625 1.625q1.09375 0.40625 2.109375 0.40625z" fill-rule="nonzero"/><path fill="#000000" d="m328.5453 129.6324q-1.640625 0 -2.609375 -1.171875q-0.96875 -1.171875 -0.96875 -3.34375q0 -1.046875 0.3125 -1.890625q0.3125 -0.84375 0.828125 -1.421875q0.515625 -0.59375 1.1875 -0.90625q0.6875 -0.328125 1.421875 -0.328125q0.75 0 1.296875 0.265625q0.5625 0.265625 1.125 0.71875l-0.078125 -1.46875l0 -3.328125l1.484375 0l0 12.65625l-1.21875 0l-0.109375 -1.015625l-0.0625 0q-0.515625 0.5 -1.1875 0.875q-0.65625 0.359375 -1.421875 0.359375zm0.3125 -1.234375q0.609375 0 1.140625 -0.28125q0.53125 -0.296875 1.0625 -0.90625l0 -4.515625q-0.546875 -0.5 -1.0625 -0.703125q-0.5 -0.203125 -1.03125 -0.203125q-0.515625 0 -0.96875 0.25q-0.453125 0.234375 -0.796875 0.671875q-0.328125 0.4375 -0.53125 1.046875q-0.1875 0.59375 -0.1875 1.34375q0 1.5625 0.625 2.4375q0.625 0.859375 1.75 0.859375z" fill-rule="nonzero"/><path fill="#000000" d="m335.78 123.9449l-0.53125 -1.28125q1.15625 -0.5 1.78125 -1.34375q0.640625 -0.84375 0.625 -1.90625q-0.078125 0.03125 -0.265625 0.03125q-0.640625 0 -1.109375 -0.390625q-0.46875 -0.390625 -0.46875 -1.140625q0 -0.71875 0.46875 -1.125q0.484375 -0.40625 1.15625 -0.40625q0.859375 0 1.34375 0.6875q0.5 0.6875 0.5 1.890625q0 1.734375 -0.9375 3.015625q-0.9375 1.28125 -2.5625 1.96875zm12.937347 -4.3125l-2.328125 -0.21875l5.625 -13.25l-0.15625 -0.5625q-0.53125 -1.78125 -1.25 -2.703125q-0.703125 -0.921875 -1.8125 -0.921875q-0.53125 0 -0.921875 0.140625q-0.390625 0.125 -0.765625 0.296875l-0.53125 -1.8125q0.453125 -0.21875 1.015625 -0.34375q0.5625 -0.140625 1.4375 -0.140625q1.921875 0 3.03125 1.40625q1.125 1.390625 1.984375 4.1875l4.90625 13.703125l-2.328125 0l-3.5625 -10.75l-0.109375 0l-4.234375 10.96875z" fill-rule="nonzero"/><path fill="#000000" d="m363.54175 129.6324q-1.640625 0 -2.609375 -1.171875q-0.96875 -1.171875 -0.96875 -3.34375q0 -1.046875 0.3125 -1.890625q0.3125 -0.84375 0.828125 -1.421875q0.515625 -0.59375 1.1875 -0.90625q0.6875 -0.328125 1.421875 -0.328125q0.75 0 1.296875 0.265625q0.5625 0.265625 1.125 0.71875l-0.078125 -1.46875l0 -3.328125l1.484375 0l0 12.65625l-1.21875 0l-0.109375 -1.015625l-0.0625 0q-0.515625 0.5 -1.1875 0.875q-0.65625 0.359375 -1.421875 0.359375zm0.3125 -1.234375q0.609375 0 1.140625 -0.28125q0.53125 -0.296875 1.0625 -0.90625l0 -4.515625q-0.546875 -0.5 -1.0625 -0.703125q-0.5 -0.203125 -1.03125 -0.203125q-0.515625 0 -0.96875 0.25q-0.453125 0.234375 -0.796875 0.671875q-0.328125 0.4375 -0.53125 1.046875q-0.1875 0.59375 -0.1875 1.34375q0 1.5625 0.625 2.4375q0.625 0.859375 1.75 0.859375z" fill-rule="nonzero"/><path fill="#000000" fill-opacity="0.0" d="m165.50262 216.64568l38.362198 0l0 51.716537l-38.362198 0z" fill-rule="evenodd"/><path fill="#000000" d="m183.24025 248.74567l0 -4.90625l-4.6875 0l0 -2.78125l4.6875 0l0 -4.90625l2.890625 0l0 4.90625l4.6875 0l0 2.78125l-4.6875 0l0 4.90625l-2.890625 0z" fill-rule="nonzero"/><path fill="#000000" fill-opacity="0.0" d="m68.50131 84.81365l86.92914 0l0 51.71653l-86.92914 0z" fill-rule="evenodd"/><path fill="#000000" d="m85.87558 124.179276l0 -17.859375q0 -1.328125 0.3125 -2.46875q0.328125 -1.15625 0.984375 -1.96875q0.671875 -0.828125 1.671875 -1.296875q1.0 -0.46875 2.359375 -0.46875q0.953125 0 1.828125 0.28125q0.890625 0.28125 1.5625 0.859375q0.6875 0.5625 1.078125 1.4375q0.40625 0.859375 0.40625 2.03125q0 1.4375 -0.671875 2.546875q-0.65625 1.109375 -1.890625 1.875l0 0.109375q1.921875 0.265625 3.03125 1.609375q1.109375 1.34375 1.109375 3.40625q0 1.296875 -0.4375 2.3125q-0.421875 1.015625 -1.125 1.71875q-0.703125 0.703125 -1.609375 1.0625q-0.90625 0.359375 -1.890625 0.359375q-1.234375 0 -2.4375 -0.421875q-1.1875 -0.421875 -2.203125 -1.546875q0.046875 1.65625 0.078125 3.21875q0.03125 1.5625 0.046875 3.203125l-2.203125 0zm6.203125 -6.28125q0.703125 0 1.3125 -0.25q0.609375 -0.265625 1.078125 -0.734375q0.46875 -0.484375 0.734375 -1.1875q0.265625 -0.703125 0.265625 -1.59375q0 -1.546875 -0.90625 -2.578125q-0.90625 -1.046875 -2.71875 -1.046875q-0.6875 0 -1.328125 0.15625l-0.359375 -1.671875q1.046875 -0.21875 1.765625 -0.640625q0.71875 -0.421875 1.171875 -0.984375q0.453125 -0.5625 0.65625 -1.203125q0.203125 -0.640625 0.203125 -1.28125q0 -0.75 -0.21875 -1.296875q-0.21875 -0.5625 -0.59375 -0.9375q-0.359375 -0.375 -0.859375 -0.5625q-0.484375 -0.1875 -1.03125 -0.1875q-1.515625 0 -2.359375 1.203125q-0.828125 1.203125 -0.859375 3.515625q-0.046875 2.34375 -0.0625 4.625q-0.015625 2.28125 -0.015625 4.625q0.9375 1.203125 2.015625 1.625q1.09375 0.40625 2.109375 0.40625z" fill-rule="nonzero"/><path fill="#000000" d="m103.701935 129.6324q-0.859375 0 -1.609375 -0.296875q-0.75 -0.3125 -1.296875 -0.890625q-0.53125 -0.578125 -0.84375 -1.421875q-0.3125 -0.84375 -0.3125 -1.90625q0 -1.09375 0.34375 -1.9375q0.34375 -0.84375 0.90625 -1.421875q0.5625 -0.59375 1.3125 -0.890625q0.765625 -0.296875 1.59375 -0.296875q0.859375 0 1.453125 0.296875q0.609375 0.296875 1.078125 0.71875l-0.75 0.953125q-0.375 -0.34375 -0.796875 -0.546875q-0.40625 -0.21875 -0.921875 -0.21875q-0.59375 0 -1.09375 0.25q-0.484375 0.234375 -0.84375 0.6875q-0.359375 0.4375 -0.5625 1.046875q-0.203125 0.609375 -0.203125 1.359375q0 0.75 0.1875 1.359375q0.203125 0.59375 0.546875 1.03125q0.34375 0.4375 0.84375 0.671875q0.5 0.234375 1.078125 0.234375q0.609375 0 1.109375 -0.25q0.515625 -0.265625 0.921875 -0.609375l0.640625 0.96875q-0.578125 0.515625 -1.296875 0.8125q-0.703125 0.296875 -1.484375 0.296875z" fill-rule="nonzero"/><path fill="#000000" d="m108.70912 123.9449l-0.53125 -1.28125q1.15625 -0.5 1.78125 -1.34375q0.640625 -0.84375 0.625 -1.90625q-0.078125 0.03125 -0.265625 0.03125q-0.640625 0 -1.109375 -0.390625q-0.46875 -0.390625 -0.46875 -1.140625q0 -0.71875 0.46875 -1.125q0.484375 -0.40625 1.15625 -0.40625q0.859375 0 1.34375 0.6875q0.5 0.6875 0.5 1.890625q0 1.734375 -0.9375 3.015625q-0.9375 1.28125 -2.5625 1.96875zm12.937363 -4.3125l-2.328125 -0.21875l5.625 -13.25l-0.15625 -0.5625q-0.53125 -1.78125 -1.25 -2.703125q-0.703125 -0.921875 -1.8125 -0.921875q-0.53125 0 -0.921875 0.140625q-0.390625 0.125 -0.765625 0.296875l-0.53125 -1.8125q0.453125 -0.21875 1.015625 -0.34375q0.5625 -0.140625 1.4375 -0.140625q1.921875 0 3.03125 1.40625q1.125 1.390625 1.984375 4.1875l4.90625 13.703125l-2.328125 0l-3.5625 -10.75l-0.109375 0l-4.234375 10.96875z" fill-rule="nonzero"/><path fill="#000000" d="m136.93962 129.6324q-0.859375 0 -1.609375 -0.296875q-0.75 -0.3125 -1.296875 -0.890625q-0.53125 -0.578125 -0.84375 -1.421875q-0.3125 -0.84375 -0.3125 -1.90625q0 -1.09375 0.34375 -1.9375q0.34375 -0.84375 0.90625 -1.421875q0.5625 -0.59375 1.3125 -0.890625q0.765625 -0.296875 1.59375 -0.296875q0.859375 0 1.453125 0.296875q0.609375 0.296875 1.078125 0.71875l-0.75 0.953125q-0.375 -0.34375 -0.796875 -0.546875q-0.40625 -0.21875 -0.921875 -0.21875q-0.59375 0 -1.09375 0.25q-0.484375 0.234375 -0.84375 0.6875q-0.359375 0.4375 -0.5625 1.046875q-0.203125 0.609375 -0.203125 1.359375q0 0.75 0.1875 1.359375q0.203125 0.59375 0.546875 1.03125q0.34375 0.4375 0.84375 0.671875q0.5 0.234375 1.078125 0.234375q0.609375 0 1.109375 -0.25q0.515625 -0.265625 0.921875 -0.609375l0.640625 0.96875q-0.578125 0.515625 -1.296875 0.8125q-0.703125 0.296875 -1.484375 0.296875z" fill-rule="nonzero"/></g></svg>